<svg width="2497" height="592" viewBox="0 0 2497 592" fill="none" xmlns="http://www.w3.org/2000/svg">
<path d="M726 475C707.667 474.667 691.333 470.5 677 462.5C662.667 454.167 651.5 442.833 643.5 428.5C635.5 413.833 631.5 397.333 631.5 379V238.5H592.5C588.5 238.5 585.167 237.333 582.5 235C580.167 232.333 579 229 579 225C579 221 580.167 217.833 582.5 215.5C585.167 212.833 588.5 211.5 592.5 211.5H631.5V130C631.5 125.333 632.833 121.667 635.5 119C638.5 116 642.167 114.5 646.5 114.5C651.167 114.5 654.833 116 657.5 119C660.5 121.667 662 125.333 662 130V211.5H728C732 211.5 735.167 212.833 737.5 215.5C740.167 217.833 741.5 221 741.5 225C741.5 229 740.167 232.333 737.5 235C735.167 237.333 732 238.5 728 238.5H662V379C662 398.333 668 414.167 680 426.5C692 438.5 707.5 444.5 726.5 444.5H737.5C742.167 444.5 745.833 446 748.5 449C751.5 451.667 753 455.333 753 460C753 464.333 751.5 468 748.5 471C745.833 473.667 742.167 475 737.5 475H726ZM790.66 475C786.327 475 782.66 473.667 779.66 471C776.993 468 775.66 464.333 775.66 460V216.5C775.66 211.833 776.993 208.167 779.66 205.5C782.66 202.833 786.327 201.5 790.66 201.5C795.327 201.5 798.993 202.833 801.66 205.5C804.327 208.167 805.66 211.833 805.66 216.5V242.5C816.66 228.833 830.327 218 846.66 210C863.327 202 881.327 198 900.66 198C924.66 198 946.16 203 965.16 213C984.493 222.667 999.66 237 1010.66 256C1021.66 274.667 1027.16 297.833 1027.16 325.5V460C1027.16 464.333 1025.66 468 1022.66 471C1019.99 473.667 1016.49 475 1012.16 475C1007.83 475 1004.16 473.667 1001.16 471C998.494 468 997.16 464.333 997.16 460V325.5C997.16 303.5 992.827 285.333 984.16 271C975.827 256.667 964.327 246 949.66 239C935.327 231.667 918.993 228 900.66 228C882.66 228 866.493 231.5 852.16 238.5C837.827 245.167 826.493 254.5 818.16 266.5C809.827 278.5 805.66 292 805.66 307V460C805.66 464.333 804.327 468 801.66 471C798.993 473.667 795.327 475 790.66 475ZM790.66 355C786.327 355 782.66 353.667 779.66 351C776.993 348 775.66 344.333 775.66 340V99.5C775.66 94.8333 776.993 91.1666 779.66 88.5C782.66 85.8333 786.327 84.5 790.66 84.5C795.327 84.5 798.993 85.8333 801.66 88.5C804.327 91.1666 805.66 94.8333 805.66 99.5V340C805.66 344.333 804.327 348 801.66 351C798.993 353.667 795.327 355 790.66 355ZM1193.09 477.5C1166.75 477.5 1143.25 471.667 1122.59 460C1102.25 448 1086.25 431.5 1074.59 410.5C1062.92 389.5 1057.09 365.5 1057.09 338.5C1057.09 311.167 1062.59 287.167 1073.59 266.5C1084.59 245.5 1099.75 229 1119.09 217C1138.42 205 1160.59 199 1185.59 199C1210.25 199 1232.09 204.833 1251.09 216.5C1270.09 227.833 1284.92 243.667 1295.59 264C1306.25 284 1311.59 307.167 1311.59 333.5C1311.59 337.833 1310.25 341.333 1307.59 344C1304.92 346.333 1301.42 347.5 1297.09 347.5H1087.59C1088.59 367.5 1093.75 385.167 1103.09 400.5C1112.42 415.833 1124.75 427.833 1140.09 436.5C1155.75 445.167 1173.42 449.5 1193.09 449.5C1206.09 449.5 1219.09 447.333 1232.09 443C1245.42 438.333 1255.92 432.333 1263.59 425C1266.25 422.333 1269.42 421 1273.09 421C1277.09 420.667 1280.42 421.667 1283.09 424C1286.75 427 1288.59 430.333 1288.59 434C1288.92 437.667 1287.42 441 1284.09 444C1273.42 453.667 1259.42 461.667 1242.09 468C1225.09 474.333 1208.75 477.5 1193.09 477.5ZM1185.59 227C1168.25 227 1152.59 231 1138.59 239C1124.59 247 1113.09 258.167 1104.09 272.5C1095.42 286.5 1090.09 302.833 1088.09 321.5H1282.59C1280.25 293.5 1270.25 270.833 1252.59 253.5C1234.92 235.833 1212.59 227 1185.59 227ZM1366.27 475C1359.94 475 1354.27 472.667 1349.27 468C1344.27 463.333 1341.77 457.167 1341.77 449.5V254.5H1320.27C1313.27 254.5 1307.61 252.5 1303.27 248.5C1298.94 244.5 1296.77 239.5 1296.77 233.5C1296.77 226.833 1298.94 221.5 1303.27 217.5C1307.61 213.5 1313.27 211.5 1320.27 211.5H1341.77V203C1341.77 179 1346.44 158.167 1355.77 140.5C1365.44 122.833 1378.77 109.167 1395.77 99.5C1412.77 89.5 1432.44 84.5 1454.77 84.5C1462.11 84.5 1468.11 86.6667 1472.77 91C1477.77 95.3333 1480.27 100.833 1480.27 107.5C1480.27 113.833 1477.77 119.333 1472.77 124C1468.11 128.333 1462.11 130.5 1454.77 130.5C1436.11 130.5 1421.11 136.667 1409.77 149C1398.44 161.333 1392.77 177.667 1392.77 198V211.5H1443.77C1450.77 211.5 1456.44 213.5 1460.77 217.5C1465.11 221.5 1467.27 226.833 1467.27 233.5C1467.27 239.5 1465.11 244.5 1460.77 248.5C1456.44 252.5 1450.77 254.5 1443.77 254.5H1392.77V449.5C1392.77 457.167 1390.44 463.333 1385.77 468C1381.11 472.667 1374.61 475 1366.27 475ZM1505.37 475C1488.7 475 1480.37 466.667 1480.37 450V226.5C1480.37 209.833 1488.7 201.5 1505.37 201.5C1522.03 201.5 1530.37 209.833 1530.37 226.5V236C1540.37 224.333 1552.53 215.167 1566.87 208.5C1581.53 201.833 1597.37 198.5 1614.37 198.5C1634.37 198.5 1649.2 201.833 1658.87 208.5C1668.87 214.833 1672.7 222.5 1670.37 231.5C1668.7 238.5 1665.37 243.167 1660.37 245.5C1655.37 247.5 1649.53 247.833 1642.87 246.5C1621.53 242.167 1602.37 241.833 1585.37 245.5C1568.37 249.167 1554.87 256 1544.87 266C1535.2 276 1530.37 288.667 1530.37 304V450C1530.37 466.667 1522.03 475 1505.37 475ZM1787.51 477C1760.51 477 1736.68 471.167 1716.01 459.5C1695.35 447.5 1679.01 431.167 1667.01 410.5C1655.35 389.5 1649.51 365.5 1649.51 338.5C1649.51 311.167 1655.35 287.167 1667.01 266.5C1679.01 245.5 1695.35 229.167 1716.01 217.5C1736.68 205.5 1760.51 199.5 1787.51 199.5C1814.18 199.5 1837.85 205.5 1858.51 217.5C1879.18 229.167 1895.35 245.5 1907.01 266.5C1919.01 287.167 1925.01 311.167 1925.01 338.5C1925.01 365.5 1919.18 389.5 1907.51 410.5C1895.85 431.167 1879.68 447.5 1859.01 459.5C1838.35 471.167 1814.51 477 1787.51 477ZM1787.51 432C1804.85 432 1820.18 428 1833.51 420C1846.85 412 1857.18 401 1864.51 387C1872.18 373 1876.01 356.833 1876.01 338.5C1876.01 320.167 1872.18 304 1864.51 290C1857.18 275.667 1846.85 264.5 1833.51 256.5C1820.18 248.5 1804.85 244.5 1787.51 244.5C1770.18 244.5 1754.85 248.5 1741.51 256.5C1728.18 264.5 1717.68 275.667 1710.01 290C1702.35 304 1698.51 320.167 1698.51 338.5C1698.51 356.833 1702.35 373 1710.01 387C1717.68 401 1728.18 412 1741.51 420C1754.85 428 1770.18 432 1787.51 432ZM1986.41 475.5C1979.08 475.5 1972.91 473.167 1967.91 468.5C1963.25 463.5 1960.91 457.333 1960.91 450V227C1960.91 219.333 1963.25 213.167 1967.91 208.5C1972.91 203.833 1979.08 201.5 1986.41 201.5C1994.08 201.5 2000.25 203.833 2004.91 208.5C2009.58 213.167 2011.91 219.333 2011.91 227V232.5C2022.25 222.167 2034.75 214 2049.41 208C2064.08 202 2079.91 199 2096.91 199C2119.91 199 2140.41 204 2158.41 214C2176.75 223.667 2191.08 238 2201.41 257C2212.08 276 2217.41 299.333 2217.41 327V450C2217.41 457.333 2214.91 463.5 2209.91 468.5C2205.25 473.167 2199.25 475.5 2191.91 475.5C2184.58 475.5 2178.41 473.167 2173.41 468.5C2168.75 463.5 2166.41 457.333 2166.41 450V327C2166.41 298.667 2158.75 278 2143.41 265C2128.41 251.667 2109.58 245 2086.91 245C2072.91 245 2060.25 247.833 2048.91 253.5C2037.58 259.167 2028.58 266.833 2021.91 276.5C2015.25 285.833 2011.91 296.667 2011.91 309V450C2011.91 457.333 2009.58 463.5 2004.91 468.5C2000.25 473.167 1994.08 475.5 1986.41 475.5ZM2361.23 475C2344.57 475 2329.57 470.833 2316.23 462.5C2302.9 453.833 2292.4 442.167 2284.73 427.5C2277.07 412.833 2273.23 396.333 2273.23 378V254.5H2250.23C2243.23 254.5 2237.57 252.5 2233.23 248.5C2228.9 244.5 2226.73 239.5 2226.73 233.5C2226.73 226.833 2228.9 221.5 2233.23 217.5C2237.57 213.5 2243.23 211.5 2250.23 211.5H2273.23V139.5C2273.23 132.167 2275.57 126.167 2280.23 121.5C2284.9 116.833 2290.9 114.5 2298.23 114.5C2305.57 114.5 2311.57 116.833 2316.23 121.5C2320.9 126.167 2323.23 132.167 2323.23 139.5V211.5H2365.73C2372.73 211.5 2378.4 213.5 2382.73 217.5C2387.07 221.5 2389.23 226.833 2389.23 233.5C2389.23 239.5 2387.07 244.5 2382.73 248.5C2378.4 252.5 2372.73 254.5 2365.73 254.5H2323.23V378C2323.23 391.333 2326.9 402.5 2334.23 411.5C2341.57 420.5 2350.57 425 2361.23 425H2378.23C2384.23 425 2389.23 427.333 2393.23 432C2397.57 436.667 2399.73 442.667 2399.73 450C2399.73 457.333 2396.9 463.333 2391.23 468C2385.9 472.667 2378.9 475 2370.23 475H2361.23ZM2436.92 483C2427.58 483 2419.42 479.667 2412.42 473C2405.75 466 2402.42 457.833 2402.42 448.5C2402.42 438.833 2405.75 430.667 2412.42 424C2419.42 417 2427.58 413.5 2436.92 413.5C2446.58 413.5 2454.75 417 2461.42 424C2468.08 430.667 2471.42 438.833 2471.42 448.5C2471.42 457.833 2468.08 466 2461.42 473C2454.75 479.667 2446.58 483 2436.92 483Z" fill="white"/>
<path d="M0 200C0 89.543 89.543 0 200 0H480V392C480 502.457 390.457 592 280 592H0V200Z" fill="white"/>
<path d="M222.5 475C216.167 475 210.5 472.667 205.5 468C200.5 463.333 198 457.167 198 449.5V254.5H176.5C169.5 254.5 163.833 252.5 159.5 248.5C155.167 244.5 153 239.5 153 233.5C153 226.833 155.167 221.5 159.5 217.5C163.833 213.5 169.5 211.5 176.5 211.5H198V203C198 179 202.667 158.167 212 140.5C221.667 122.833 235 109.167 252 99.5C269 89.5 288.667 84.5 311 84.5C318.333 84.5 324.333 86.6667 329 91C334 95.3333 336.5 100.833 336.5 107.5C336.5 113.833 334 119.333 329 124C324.333 128.333 318.333 130.5 311 130.5C292.333 130.5 277.333 136.667 266 149C254.667 161.333 249 177.667 249 198V211.5H300C307 211.5 312.667 213.5 317 217.5C321.333 221.5 323.5 226.833 323.5 233.5C323.5 239.5 321.333 244.5 317 248.5C312.667 252.5 307 254.5 300 254.5H249V449.5C249 457.167 246.667 463.333 242 468C237.333 472.667 230.833 475 222.5 475Z" fill="#1B1642"/>
</svg>
